<svg width="168" height="38" viewBox="0 0 168 38" fill="none" xmlns="http://www.w3.org/2000/svg">
    <path d="M32.4131 16.5129C32.4131 23.2907 30.0211 27.7064 17.9044 37.3511C17.5029 37.6697 16.9006 37.446 16.904 36.9478C16.9142 34.9823 16.904 31.529 16.7066 31.529C7.95852 31.5256 0.881077 24.6903 1.00017 16.2994C1.11926 8.21359 8.02317 1.61545 16.4821 1.50023C25.2574 1.38501 32.4131 8.1492 32.4131 16.5129Z" fill="#ED64A6"/>
    <path d="M12.6267 12.1005C13.7223 12.1005 14.6105 11.2159 14.6105 10.1248C14.6105 9.0336 13.7223 8.14905 12.6267 8.14905C11.5311 8.14905 10.643 9.0336 10.643 10.1248C10.643 11.2159 11.5311 12.1005 12.6267 12.1005Z" fill="white"/>
    <path d="M20.3541 12.1005C21.4497 12.1005 22.3378 11.2159 22.3378 10.1248C22.3378 9.0336 21.4497 8.14905 20.3541 8.14905C19.2585 8.14905 18.3703 9.0336 18.3703 10.1248C18.3703 11.2159 19.2585 12.1005 20.3541 12.1005Z" fill="white"/>
    <path d="M8.31902 15.6351C8.32923 15.0996 8.76136 14.6591 9.29897 14.6591H9.30578C14.1817 14.6557 19.0611 14.6252 23.937 14.6658C26.9994 14.6929 28.7687 17.5633 27.2171 19.9593C26.8497 20.5252 26.3529 20.9488 25.6383 21.2877C25.2674 21.4639 24.5393 21.6401 24.3624 21.6808C24.3385 21.6876 24.3147 21.7011 24.3011 21.7215C24.1582 21.9417 23.3177 23.2295 22.2119 24.2462C21.9193 24.5139 20.6943 25.6797 19.2006 26.2117C17.4721 26.8251 15.5768 26.6929 13.7088 25.9982C10.5001 24.8087 8.70011 22.4264 8.34964 19.0476C8.23735 17.9497 8.2918 16.8347 8.31561 15.6351H8.31902ZM24.3249 16.628C24.3249 17.6989 24.3249 18.685 24.3249 19.6949C24.3249 19.9525 24.5767 20.1321 24.8217 20.0575C25.8085 19.7559 26.3018 19.1053 26.2882 18.1157C26.2746 17.2278 25.7914 16.5941 24.8251 16.2654C24.5801 16.184 24.3249 16.3704 24.3249 16.628Z" fill="white"/>
    <path d="M16.1382 17.665C19.9662 17.665 23.0693 16.7026 23.0693 15.5165H9.20709C9.20709 16.7026 12.3103 17.665 16.1382 17.665Z" fill="#ED64A6"/>
    <path d="M43.7208 25.3881C42.4823 25.3881 41.4547 25.0255 40.6381 24.3003C39.8214 23.5751 39.4131 22.5686 39.4131 21.2808H41.2914C41.2914 22.0128 41.5261 22.5889 41.9957 23.0091C42.4653 23.4293 43.0335 23.6395 43.7004 23.6395C44.3673 23.6395 44.9662 23.4226 45.4153 22.9888C45.8645 22.555 46.089 21.8772 46.089 20.9555V10.7075H47.9673V21.1588C47.9673 22.5821 47.5658 23.6428 46.7628 24.341C45.9597 25.0391 44.9458 25.3881 43.7208 25.3881Z" fill="#ED64A6"/>
    <path d="M54.8474 25.3475C53.7313 25.3475 52.8262 24.9713 52.1321 24.219C51.438 23.4667 51.0909 22.4669 51.0909 21.2198V14.9775H52.8466V20.9555C52.8466 21.8095 53.0542 22.4873 53.4693 22.9888C53.8844 23.4904 54.4459 23.7412 55.1536 23.7412C55.9702 23.7412 56.6474 23.4057 57.185 22.7347C57.7226 22.0637 57.9914 21.1588 57.9914 20.0202V14.9775H59.7472V25.1442H57.9914V23.5785C57.3245 24.7578 56.2765 25.3475 54.8474 25.3475Z" fill="#ED64A6"/>
    <path d="M66.1373 25.3475C65.1981 25.3475 64.3747 25.1475 63.667 24.7476C62.9592 24.3477 62.4488 23.7615 62.1358 22.9888L63.5649 22.1958C63.7554 22.6974 64.0889 23.0905 64.5653 23.3751C65.0416 23.6598 65.5724 23.8021 66.1577 23.8021C66.6613 23.8021 67.0832 23.6801 67.4235 23.4361C67.7637 23.1921 67.9338 22.86 67.9338 22.4398C67.9338 22.0738 67.8011 21.7688 67.5357 21.5248C67.2703 21.2808 66.811 21.0571 66.1577 20.8538L65.1369 20.5285C63.4356 20.0405 62.5849 19.0509 62.5849 17.5598C62.5849 16.7194 62.9218 16.045 63.5955 15.5367C64.2692 15.0283 65.1029 14.7742 66.0964 14.7742C67.648 14.7742 68.7709 15.3638 69.465 16.5432L68.1584 17.4378C67.6004 16.6652 66.8926 16.2788 66.0352 16.2788C65.5724 16.2788 65.1743 16.3907 64.8409 16.6143C64.5074 16.838 64.3407 17.1328 64.3407 17.4988C64.3407 17.8377 64.4462 18.1258 64.6571 18.363C64.8681 18.6002 65.2458 18.8002 65.7902 18.9628L66.9131 19.3085C68.7641 19.8778 69.6896 20.8741 69.6896 22.2975C69.6896 23.2464 69.3595 23.9919 68.6994 24.5341C68.0393 25.0763 67.1853 25.3475 66.1373 25.3475Z" fill="#ED64A6"/>
    <path d="M76.1001 25.2459C75.161 25.2459 74.4056 24.9815 73.834 24.4529C73.2623 23.9242 72.9765 23.1515 72.9765 22.1349V16.5839H70.8125V14.9776H72.9765V12.1512H74.7323V14.9776H77.6721V16.5839H74.7323V21.9112C74.7323 22.5483 74.8684 22.9956 75.1406 23.2532C75.4128 23.5107 75.8415 23.6395 76.4268 23.6395C76.944 23.6395 77.3591 23.5717 77.6721 23.4362V25.0019C77.1822 25.1645 76.6581 25.2459 76.1001 25.2459Z" fill="#ED64A6"/>
    <path d="M91.5956 25.3881C89.5132 25.3881 87.7439 24.6663 86.2875 23.2226C84.8312 21.7789 84.1031 20.0133 84.1031 17.9258C84.1031 15.8383 84.8312 14.0727 86.2875 12.629C87.7439 11.1853 89.5132 10.4635 91.5956 10.4635C92.9703 10.4635 94.2156 10.7753 95.3317 11.3988C96.4478 12.0224 97.3392 12.8764 98.0061 13.9608L96.4137 14.9165C95.8965 14.0896 95.2228 13.4389 94.3926 12.9645C93.5623 12.49 92.63 12.2528 91.5956 12.2528C90.0168 12.2528 88.6932 12.8018 87.6248 13.8998C86.5563 14.9978 86.0221 16.3398 86.0221 17.9258C86.0221 19.5118 86.5563 20.8538 87.6248 21.9518C88.6932 23.0498 90.0168 23.5988 91.5956 23.5988C92.63 23.5988 93.5623 23.3616 94.3926 22.8871C95.2228 22.4127 95.8965 21.762 96.4137 20.9351L98.0061 21.8908C97.3392 22.9752 96.4478 23.8292 95.3317 24.4528C94.2156 25.0763 92.9703 25.3881 91.5956 25.3881Z" fill="#ED64A6"/>
    <path d="M102.008 25.1441H100.252V9.89417H102.008V16.5431C102.702 15.3638 103.784 14.7741 105.254 14.7741C106.411 14.7741 107.343 15.1469 108.051 15.8925C108.758 16.638 109.112 17.6344 109.112 18.8815V25.1441H107.377V19.1458C107.377 18.2918 107.159 17.6174 106.724 17.1226C106.288 16.6279 105.703 16.3805 104.968 16.3805C104.124 16.3805 103.42 16.7126 102.855 17.3768C102.29 18.041 102.008 18.9492 102.008 20.1015V25.1441Z" fill="#ED64A6"/>
    <path d="M116.482 25.3475C115.067 25.3475 113.879 24.8323 112.92 23.8021C111.96 22.7719 111.481 21.5248 111.481 20.0608C111.481 18.5968 111.96 17.3497 112.92 16.3195C113.879 15.2893 115.067 14.7742 116.482 14.7742C117.231 14.7742 117.928 14.9402 118.575 15.2723C119.221 15.6044 119.722 16.0281 120.076 16.5432V14.9775H121.831V25.1441H120.076V23.5785C119.722 24.0936 119.221 24.5172 118.575 24.8493C117.928 25.1814 117.231 25.3475 116.482 25.3475ZM116.748 23.7411C117.755 23.7411 118.585 23.3887 119.238 22.6838C119.892 21.9789 120.218 21.1046 120.218 20.0608C120.218 19.017 119.892 18.1427 119.238 17.4378C118.585 16.7329 117.755 16.3805 116.748 16.3805C115.741 16.3805 114.89 16.7329 114.237 17.4378C113.583 18.1427 113.257 19.017 113.257 20.0608C113.257 21.1046 113.583 21.9789 114.237 22.6838C114.89 23.3887 115.727 23.7411 116.748 23.7411Z" fill="#ED64A6"/>
    <path d="M129.099 25.2459C128.16 25.2459 127.405 24.9815 126.833 24.4529C126.261 23.9242 125.976 23.1515 125.976 22.1349V16.5839H123.812V14.9776H125.976V12.1512H127.731V14.9776H130.385V16.5839H127.731V21.9112C127.731 22.5483 127.868 22.9956 128.14 23.2532C128.412 23.5107 128.841 23.6395 129.426 23.6395C129.943 23.6395 130.358 23.5717 130.671 23.4362V25.0019C130.181 25.1645 129.657 25.2459 129.099 25.2459ZM136.571 25.2459C135.632 25.2459 134.877 24.9815 134.305 24.4529C133.734 23.9242 133.448 23.1515 133.448 22.1349V16.5839H131.529V14.9776H133.448V12.1512H135.204V14.9776H138.164V16.5839H135.204V21.9112C135.204 22.5483 135.34 22.9956 135.612 23.2532C135.884 23.5107 136.313 23.6395 136.898 23.6395C137.429 23.6395 137.851 23.5717 138.164 23.4362V25.0019C137.633 25.1645 137.102 25.2459 136.571 25.2459Z" fill="#ED64A6"/>
    <path d="M142.186 11.897C141.954 12.1343 141.662 12.2529 141.308 12.2529C140.954 12.2529 140.655 12.1343 140.41 11.897C140.165 11.6598 140.042 11.365 140.042 11.0125C140.042 10.6601 140.165 10.3822 140.41 10.1382C140.655 9.89422 140.954 9.77222 141.308 9.77222C141.662 9.77222 141.954 9.89422 142.186 10.1382C142.417 10.3822 142.533 10.6737 142.533 11.0125C142.533 11.3514 142.417 11.6598 142.186 11.897ZM140.41 25.1441V14.9775H142.165V25.1441H140.41Z" fill="#ED64A6"/>
    <path d="M145.493 25.1441V14.9775H147.249V16.5432C147.943 15.3638 149.025 14.7742 150.495 14.7742C151.652 14.7742 152.584 15.1469 153.292 15.8925C154 16.6381 154.353 17.6344 154.353 18.8815V25.1441H152.618V19.1458C152.618 18.2918 152.4 17.6174 151.965 17.1227C151.529 16.6279 150.944 16.3805 150.209 16.3805C149.365 16.3805 148.661 16.7126 148.096 17.3768C147.531 18.041 147.249 18.9493 147.249 20.1015V25.1441H145.493Z" fill="#ED64A6"/>
    <path d="M161.866 29.5971C160.818 29.5971 159.873 29.4039 159.029 29.0176C158.185 28.6313 157.531 28.1331 157.069 27.5231L158.294 26.3031C159.192 27.4418 160.383 28.0111 161.866 28.0111C162.819 28.0111 163.626 27.7129 164.286 27.1164C164.946 26.52 165.276 25.6457 165.276 24.4935V23.3345C164.908 23.8767 164.412 24.3105 163.786 24.6358C163.159 24.9611 162.472 25.1238 161.724 25.1238C160.294 25.1238 159.104 24.6256 158.151 23.6293C157.198 22.633 156.722 21.4028 156.722 19.9388C156.722 18.4748 157.201 17.265 158.161 16.2687C159.121 15.2723 160.308 14.7742 161.724 14.7742C162.472 14.7742 163.159 14.9368 163.786 15.2622C164.412 15.5875 164.908 16.0145 165.276 16.5432V14.9775H167.032V24.5545C167.032 26.1947 166.552 27.4452 165.592 28.3059C164.633 29.1667 163.391 29.5971 161.866 29.5971ZM159.478 22.4906C160.117 23.1616 160.948 23.4971 161.969 23.4971C162.989 23.4971 163.82 23.1616 164.459 22.4906C165.099 21.8196 165.419 20.969 165.419 19.9388C165.419 18.9086 165.096 18.058 164.449 17.387C163.803 16.716 162.976 16.3805 161.969 16.3805C160.961 16.3805 160.135 16.716 159.488 17.387C158.842 18.058 158.518 18.9086 158.518 19.9388C158.518 20.969 158.838 21.8196 159.478 22.4906Z" fill="#ED64A6"/>
</svg>
